<svg width="111" height="35" viewBox="0 0 111 35" fill="none" xmlns="http://www.w3.org/2000/svg">
<g clip-path="url(#clip0_2978_1214)">
<path d="M15.6848 14.5876C23.411 14.5876 27.9673 18.1114 27.9673 24.1317C27.9673 30.521 23.1712 34.2764 15.0178 34.2764H0V0H15.4C21.6874 0 25.3744 2.77858 25.3744 7.50362C25.3744 11.8596 21.4851 14.5007 14.9654 14.5007V14.5948H15.6848V14.5876ZM13.2418 4.95658H6.62463V14.5007H13.2418C16.5541 14.5007 18.5175 12.6918 18.5175 9.73227C18.5175 6.77279 16.5541 4.96382 13.2418 4.96382V4.95658ZM15.3551 29.3198C18.9521 29.3198 21.1104 27.3734 21.1104 24.1317C21.1104 20.89 18.9521 18.9436 15.3551 18.9436H6.62463V29.3198H15.3551Z" fill="#0A0B0B"/>
<path d="M32.8984 34.2764V11.0275H39.2308V34.2764H32.8984Z" fill="#0A0B0B"/>
<path d="M86.6823 22.6483C86.6823 15.0506 91.336 10.5572 99.1072 10.5572C105.679 10.5572 109.951 13.8929 110.91 19.6382H104.675C103.858 16.9537 101.94 15.3763 99.1072 15.3763C95.3678 15.3763 93.157 18.1114 93.157 22.6483C93.157 27.1852 95.3603 29.877 99.1072 29.877C102.082 29.877 104.046 28.2127 104.765 25.3401H111C110.086 31.3169 105.822 34.7395 99.0997 34.7395C91.3285 34.7395 86.6748 30.246 86.6748 22.6483H86.6823Z" fill="#0A0B0B"/>
<path d="M82.4784 11.0347V22.5615C82.4784 30.3618 78.5741 35 70.9303 35C69.1242 35 67.5505 34.7395 66.2091 34.2402C61.975 32.6628 60.0116 28.6831 59.9367 22.9305V22.699C59.9367 22.5615 59.9367 22.424 59.9367 22.2865C59.8543 18.0897 58.5353 15.7091 55.2305 15.7091C51.9257 15.7091 50.1346 18.2417 50.1346 22.699V34.2402H43.9521V22.7207C43.9521 14.9204 47.8565 10.2822 55.5003 10.2822C57.3063 10.2822 58.8726 10.5427 60.214 11.042C64.5005 12.6339 66.4564 16.6787 66.4939 22.5326V22.5832C66.4939 22.6556 66.4939 22.7207 66.4939 22.7931C66.5313 27.1129 67.8428 29.5731 71.2075 29.5731C74.5723 29.5731 76.2959 27.0405 76.2959 22.5904V11.0492H82.4784V11.0347Z" fill="#0A0B0B"/>
<path d="M39.3802 4.1751C39.3802 2.40476 37.8955 0.969604 36.0641 0.969604C34.2327 0.969604 32.748 2.40476 32.748 4.1751V4.29088C32.748 6.06123 34.2327 7.49638 36.0641 7.49638C37.8955 7.49638 39.3802 6.06123 39.3802 4.29088V4.1751Z" fill="#0A0B0B"/>
</g>
<defs>
<clipPath id="clip0_2978_1214">
<rect width="111" height="35" fill="white"/>
</clipPath>
</defs>
</svg>
